<svg xmlns="http://www.w3.org/2000/svg" xmlns:xlink="http://www.w3.org/1999/xlink" width="19.637" height="13.91" viewBox="0 0 19.637 13.91">
  <defs>
    <clipPath id="clip-path">
      <path id="Mask" d="M6.955,13.91A6.957,6.957,0,0,1,2.035,2.035,6.91,6.91,0,0,1,6.955,0a6.7,6.7,0,0,1,4.661,1.819L9.727,3.636A3.891,3.891,0,0,0,6.955,2.564a4.392,4.392,0,0,0,0,8.783A4.009,4.009,0,0,0,9.86,10.269a3.6,3.6,0,0,0,1.024-1.856H7.364V5.958l6.158,0a6.986,6.986,0,0,1-1.434,5.717A6.469,6.469,0,0,1,6.955,13.91ZM18,9.231H16.365V7.594H14.728V5.958h1.637V4.321H18V5.958h1.637V7.594H18V9.23Z" transform="translate(0)" fill="#2c2d2e"/>
    </clipPath>
  </defs>
</svg>
