<svg xmlns="http://www.w3.org/2000/svg" width="168" height="32" viewBox="0 0 168 32">
  <g id="Logo" transform="translate(0)">
    <g id="Logo_-_Type" data-name="Logo - Type" transform="translate(44 6)">
      <path id="Path_26805" data-name="Path 26805" d="M526.409,53.139a.59.59,0,0,0-.59-.589H523.9a.589.589,0,0,0-.59.589V71.261a.589.589,0,0,0,.59.589h1.917a.59.59,0,0,0,.59-.589Z" transform="translate(-491.597 -52.131)"/>
      <path id="Path_26807" data-name="Path 26807" d="M397.819,91.55H395.9a.59.59,0,0,0-.59.59v12.386a.59.59,0,0,0,.59.59h1.917a.59.59,0,0,0,.59-.59V92.14A.59.59,0,0,0,397.819,91.55Z" transform="translate(-382.481 -85.396)"/>
      <path id="Path_26808" data-name="Path 26808" d="M432.413,95.625a3.327,3.327,0,0,1,.734-2.3,2.635,2.635,0,0,1,2.066-.787,3.064,3.064,0,0,1,1.528.366,2.454,2.454,0,0,1,.963,1.04,4.163,4.163,0,0,1,.311,1.687v7.112a.59.59,0,0,0,.59.59h1.917a.59.59,0,0,0,.59-.59V95.484a6.361,6.361,0,0,0-.734-3.092,5.557,5.557,0,0,0-2.088-2.081,6.187,6.187,0,0,0-3.076-.759,6.256,6.256,0,0,0-3.076.731,5.353,5.353,0,0,0-2.06,2.081,6.249,6.249,0,0,0-.762,3.12v7.253a.59.59,0,0,0,.59.59h1.917a.59.59,0,0,0,.59-.59V95.625Z" transform="translate(-411.469 -83.691)"/>
      <path id="Path_26809" data-name="Path 26809" d="M394.894,52.873a1.8,1.8,0,0,0-1.321.534,1.941,1.941,0,0,0,0,2.642,1.8,1.8,0,0,0,1.321.534,1.738,1.738,0,0,0,1.321-.534,1.94,1.94,0,0,0,0-2.642,1.738,1.738,0,0,0-1.321-.534Z" transform="translate(-380.567 -52.405)"/>
      <path id="Path_26810" data-name="Path 26810" d="M311.4,53.139a.589.589,0,0,0-.59-.589h-1.917a.59.59,0,0,0-.59.589V69.373a2.317,2.317,0,0,0,2.492,2.478h7.978a.589.589,0,0,0,.59-.589V69.493a.589.589,0,0,0-.59-.589H311.4Z" transform="translate(-308.301 -52.131)"/>
      <g id="Group_73" data-name="Group 73" transform="translate(45.572)">
        <path id="Path_26806" data-name="Path 26806" d="M625.71,61.177a.589.589,0,0,0,.59.588H632a6.174,6.174,0,0,1-.643,1.907,5.012,5.012,0,0,1-2.184,2.126,7.472,7.472,0,0,1-3.359.7,6.178,6.178,0,0,1-3.3-.894,6.562,6.562,0,0,1-2.324-2.462,7.631,7.631,0,0,1-.79-3.529,7.482,7.482,0,0,1,.79-3.5,6.032,6.032,0,0,1,2.352-2.434,6.933,6.933,0,0,1,3.555-.894,7.371,7.371,0,0,1,3.135.672,5.494,5.494,0,0,1,1.885,1.331.652.652,0,0,0,.933.049l1.314-1.312a.562.562,0,0,0,.028-.778,8.985,8.985,0,0,0-2.984-2.144,10.369,10.369,0,0,0-4.312-.894,10.093,10.093,0,0,0-3.976.784,9.559,9.559,0,0,0-3.191,2.154,10.4,10.4,0,0,0-2.128,3.188,9.8,9.8,0,0,0-.7,3.781,9.986,9.986,0,0,0,.7,3.809,10.707,10.707,0,0,0,2.128,3.216,9.887,9.887,0,0,0,3.135,2.154,9.428,9.428,0,0,0,3.807.784,10.326,10.326,0,0,0,4.927-1.146,8.117,8.117,0,0,0,3.387-3.468,11.532,11.532,0,0,0,1.259-5.683h0a.457.457,0,0,0-.457-.457H626.3a.59.59,0,0,0-.59.589v1.765Z" transform="translate(-616.095 -49.707)"/>
        <path id="Path_26811" data-name="Path 26811" d="M990.013,99.252a3.327,3.327,0,0,1-.734,2.3,2.635,2.635,0,0,1-2.066.787,3.062,3.062,0,0,1-1.528-.366,2.46,2.46,0,0,1-.963-1.04,4.156,4.156,0,0,1-.311-1.687V92.14a.59.59,0,0,0-.59-.59H981.9a.59.59,0,0,0-.59.59v7.253a6.359,6.359,0,0,0,.734,3.092,5.558,5.558,0,0,0,2.088,2.081,6.189,6.189,0,0,0,3.076.759,6.256,6.256,0,0,0,3.076-.731,5.346,5.346,0,0,0,2.06-2.081,6.243,6.243,0,0,0,.762-3.12V92.14a.59.59,0,0,0-.59-.59H990.6a.59.59,0,0,0-.59.59v7.112Z" transform="translate(-926.279 -85.396)"/>
        <path id="Path_26812" data-name="Path 26812" d="M860.413,96.625a3.327,3.327,0,0,1,.734-2.3,2.635,2.635,0,0,1,2.066-.787,3.064,3.064,0,0,1,1.528.366,2.454,2.454,0,0,1,.963,1.04,4.161,4.161,0,0,1,.311,1.687v7.112a.59.59,0,0,0,.59.59h1.917a.59.59,0,0,0,.59-.59V96.484a6.36,6.36,0,0,0-.734-3.092,5.559,5.559,0,0,0-2.088-2.081,6.187,6.187,0,0,0-3.076-.759,6.256,6.256,0,0,0-3.076.731,5.352,5.352,0,0,0-2.06,2.081,6.246,6.246,0,0,0-.762,3.12v7.253a.59.59,0,0,0,.59.59h1.917a.59.59,0,0,0,.59-.59V96.625Z" transform="translate(-821.301 -84.544)"/>
        <path id="Path_26813" data-name="Path 26813" d="M949.394,52.873a1.8,1.8,0,0,0-1.321.534,1.94,1.94,0,0,0,0,2.642,1.8,1.8,0,0,0,1.321.534,1.738,1.738,0,0,0,1.321-.534,1.939,1.939,0,0,0,0-2.642,1.738,1.738,0,0,0-1.321-.534Z" transform="translate(-897.95 -52.405)"/>
        <path id="Path_26814" data-name="Path 26814" d="M764.8,89.736a6.277,6.277,0,0,0-3.33-.874h-.236a7.077,7.077,0,0,0-3.263,13.206,7.46,7.46,0,0,0,3.669.9,7.663,7.663,0,0,0,2.992-.593,6.343,6.343,0,0,0,2.031-1.353.552.552,0,0,0-.012-.781l-1.153-1.17a.669.669,0,0,0-.9-.011,4.022,4.022,0,0,1-1.07.634,4.919,4.919,0,0,1-1.918.367,4.408,4.408,0,0,1-2.144-.507,3.669,3.669,0,0,1-1.439-1.5,4.7,4.7,0,0,1-.367-.988h9.647a.561.561,0,0,0,.566-.511c.032-.376.06-.81.06-.956a7.019,7.019,0,0,0-.846-3.471,6.091,6.091,0,0,0-2.286-2.4Zm-5.44,2.524a4.008,4.008,0,0,1,2.053-.506,3.633,3.633,0,0,1,1.883.45,2.994,2.994,0,0,1,1.209,1.293,5.065,5.065,0,0,1,.358,1.068h-7.178a4.543,4.543,0,0,1,.327-.871,3.445,3.445,0,0,1,1.349-1.433Z" transform="translate(-733.623 -83.104)"/>
        <path id="Path_26815" data-name="Path 26815" d="M1077.747,97.918a3.624,3.624,0,0,0-1.321-1.237,6.821,6.821,0,0,0-1.687-.731q-.872-.281-1.687-.506a5.28,5.28,0,0,1-1.293-.534.971.971,0,0,1-.506-.871.885.885,0,0,1,.506-.815,3.01,3.01,0,0,1,1.433-.282,3.7,3.7,0,0,1,2.639.975.674.674,0,0,0,.923.015l1.143-1.143a.547.547,0,0,0,.042-.747,5.2,5.2,0,0,0-1.8-1.323,6.585,6.585,0,0,0-2.868-.59,6.485,6.485,0,0,0-2.67.506,3.744,3.744,0,0,0-2.3,3.654,3.483,3.483,0,0,0,.506,1.967,3.805,3.805,0,0,0,1.293,1.209,9.382,9.382,0,0,0,1.687.675q.9.252,1.687.506a4.589,4.589,0,0,1,1.321.562,1.091,1.091,0,0,1,.382.41,1.078,1.078,0,0,1,.124.546.982.982,0,0,1-.534.9,3.193,3.193,0,0,1-1.573.31,5.3,5.3,0,0,1-2.081-.394,4.811,4.811,0,0,1-1.158-.776.656.656,0,0,0-.9-.008l-1.134,1.135a.553.553,0,0,0-.022.778,6.606,6.606,0,0,0,1.161.95,8.009,8.009,0,0,0,1.911.843,8.323,8.323,0,0,0,2.165.282,5.638,5.638,0,0,0,3.738-1.153,3.855,3.855,0,0,0,1.377-3.12,3.543,3.543,0,0,0-.506-2Z" transform="translate(-999.821 -84.184)"/>
        <path id="Path_26816" data-name="Path 26816" d="M951.819,91.55H949.9a.59.59,0,0,0-.59.59v12.386a.59.59,0,0,0,.59.59h1.917a.59.59,0,0,0,.59-.59V92.14A.59.59,0,0,0,951.819,91.55Z" transform="translate(-899.439 -85.396)"/>
      </g>
      <path id="Path_26817" data-name="Path 26817" d="M555.934,93.277a.442.442,0,0,0-.338-.727h-2.48a.885.885,0,0,0-.665.3l-3.636,4.141s-.271.332-.6.678a2.321,2.321,0,0,0,0,3.149c.137.159.641.767.641.767l3.591,4.082a.885.885,0,0,0,.664.3h2.479a.442.442,0,0,0,.338-.728l-5.043-5.97Z" transform="translate(-512.156 -86.249)"/>
    </g>
    <g id="Logo_-_Sign" data-name="Logo - Sign" transform="translate(0)">
      <path id="Path_26818" data-name="Path 26818" d="M25.6,103.837a3.2,3.2,0,0,1-3.2,3.2H9.618a3.2,3.2,0,0,1,0-6.4H22.4a3.2,3.2,0,0,1,3.2,3.2m6.393,0a9.593,9.593,0,0,0-9.589-9.6H9.618a9.6,9.6,0,0,0-.073,19.2H22.4a9.593,9.593,0,0,0,9.589-9.6h0Z" transform="translate(0.009 -81.436)" fill="#43aee6"/>
      <path id="Path_26819" data-name="Path 26819" d="M9.867,6.4a3.2,3.2,0,0,1,3.2,3.2V22.4a3.2,3.2,0,1,1-6.4,0V9.6a3.2,3.2,0,0,1,3.2-3.2m0-6.4a9.6,9.6,0,0,0-9.6,9.6h0V22.4a9.6,9.6,0,0,0,19.193,0V9.6A9.6,9.6,0,0,0,9.867,0Z" transform="translate(-0.233)" fill="#ec4eae"/>
      <path id="Path_26820" data-name="Path 26820" d="M13.053,94.25v6.4h6.4v-6.4Zm-6.4,9.6V94.8A9.6,9.6,0,1,0,18.9,107.046H9.855a3.2,3.2,0,0,1-3.2-3.2Z" transform="translate(-0.221 -81.443)" fill="#3e369d"/>
    </g>
  </g>
</svg>
