<svg xmlns="http://www.w3.org/2000/svg" xmlns:xlink="http://www.w3.org/1999/xlink" width="19.637" height="15.873" viewBox="0 0 19.637 15.873">
  <defs>
    <clipPath id="clip-path">
      <path id="Mask" d="M19.637,1.882a7.369,7.369,0,0,1-2.291.655,4.356,4.356,0,0,0,1.8-2.209,7.428,7.428,0,0,1-2.536.982A3.961,3.961,0,0,0,13.664,0,4.016,4.016,0,0,0,9.655,4.009a3.068,3.068,0,0,0,.082.9A11.3,11.3,0,0,1,1.391.655,3.693,3.693,0,0,0,.818,2.7a4.108,4.108,0,0,0,1.8,3.355,3.3,3.3,0,0,1-1.8-.491v.082A3.969,3.969,0,0,0,4.009,9.573a4.146,4.146,0,0,1-1.064.164,2.265,2.265,0,0,1-.736-.082,3.879,3.879,0,0,0,3.764,2.782A8.185,8.185,0,0,1,.982,14.155,3.984,3.984,0,0,1,0,14.073a11.453,11.453,0,0,0,6.137,1.8A11.352,11.352,0,0,0,17.592,4.418V3.927A9.7,9.7,0,0,0,19.637,1.882Z" transform="translate(0)" fill="#2c2d2e"/>
    </clipPath>
  </defs>
</svg>
