<?xml version="1.0" standalone="no"?>
<!DOCTYPE svg PUBLIC "-//W3C//DTD SVG 20010904//EN"
 "http://www.w3.org/TR/2001/REC-SVG-20010904/DTD/svg10.dtd">
<svg version="1.0" xmlns="http://www.w3.org/2000/svg"
 width="513.000000pt" height="513.000000pt" viewBox="0 0 513.000000 513.000000"
 preserveAspectRatio="xMidYMid meet">
<metadata>
Created by potrace 1.14, written by Peter Selinger 2001-2017
</metadata>
<g transform="translate(0.000000,513.000000) scale(0.100000,-0.100000)"
fill="#000000" stroke="none">
<path d="M1898 3880 c-287 -49 -531 -269 -619 -560 -23 -74 -23 -83 -27 -705
-3 -679 -2 -704 48 -834 90 -231 283 -404 535 -479 42 -12 150 -14 695 -13
707 2 724 4 864 66 165 73 316 222 392 388 72 158 88 368 39 532 -75 255 -257
445 -510 531 -74 25 -97 28 -290 33 l-210 6 -6 200 c-4 145 -10 218 -23 263
-107 393 -490 639 -888 572z m246 -535 c51 -25 104 -78 127 -129 16 -35 19
-67 19 -208 l0 -168 -168 0 c-161 0 -251 -12 -334 -45 -17 -7 -18 6 -18 181 0
178 2 192 24 239 28 60 75 107 136 135 56 26 155 24 214 -5z m146 -1182 c0
-188 -8 -219 -71 -281 -51 -52 -99 -72 -171 -72 -89 0 -129 14 -186 66 -62 55
-86 112 -86 203 0 73 16 114 68 169 65 70 103 80 294 81 l152 1 0 -167z m895
143 c96 -45 145 -115 153 -217 6 -84 -14 -143 -66 -201 -69 -76 -92 -83 -310
-86 -188 -3 -194 -3 -188 16 26 79 36 173 36 328 0 94 3 174 7 177 3 4 76 7
162 7 143 0 160 -2 206 -24z"/>
</g>
</svg>
