<svg xmlns="http://www.w3.org/2000/svg" xmlns:xlink="http://www.w3.org/1999/xlink" width="20" height="20" viewBox="0 0 20 20">
  <defs>
    <clipPath id="clip-path">
      <path id="Mask" d="M10,20c-2.683,0-3.04-.011-4.123-.059a5.96,5.96,0,0,1-4.2-1.619,5.958,5.958,0,0,1-1.618-4.2C.012,13.048,0,12.691,0,10S.012,6.952.06,5.877a5.959,5.959,0,0,1,1.618-4.2A5.959,5.959,0,0,1,5.877.06C6.952.012,7.309,0,10,0s3.048.012,4.124.06a5.958,5.958,0,0,1,4.2,1.618,5.96,5.96,0,0,1,1.619,4.2C19.989,6.96,20,7.317,20,10s-.011,3.04-.059,4.124a5.959,5.959,0,0,1-1.619,4.2,5.959,5.959,0,0,1-4.2,1.619C13.04,19.989,12.683,20,10,20ZM10,1.8c-2.678,0-2.993.01-4.041.059A4.343,4.343,0,0,0,2.953,2.953,4.343,4.343,0,0,0,1.86,5.959C1.812,7.007,1.8,7.322,1.8,10s.01,2.994.059,4.041a4.347,4.347,0,0,0,1.093,3.007,4.352,4.352,0,0,0,3.006,1.093c1.051.048,1.367.058,4.041.058s2.991-.01,4.041-.058a4.356,4.356,0,0,0,3.007-1.093,4.356,4.356,0,0,0,1.093-3.007c.048-1.05.058-1.366.058-4.041s-.01-2.99-.058-4.041a4.352,4.352,0,0,0-1.093-3.006A4.347,4.347,0,0,0,14.041,1.86C12.994,1.812,12.679,1.8,10,1.8Zm0,13.334A5.135,5.135,0,1,1,15.136,10,5.141,5.141,0,0,1,10,15.135Zm0-8.469A3.334,3.334,0,1,0,13.334,10,3.337,3.337,0,0,0,10,6.666Zm5.339-.8a1.2,1.2,0,1,1,1.2-1.2A1.2,1.2,0,0,1,15.339,5.862Z" fill="#2c2d2e"/>
    </clipPath>
  </defs>
</svg>
