<svg xmlns="http://www.w3.org/2000/svg" xmlns:xlink="http://www.w3.org/1999/xlink" width="20" height="20" viewBox="0 0 20 20">
  <defs>
    <clipPath id="clip-path">
      <path id="Mask" d="M19.167,20H.833L0,19.167V.833L.833,0H19.167L20,.833V19.167L19.167,20h0ZM12.583,9.917c1.5,0,1.5,1.445,1.5,2.5v4.667h3V11.917a6.1,6.1,0,0,0-.667-3.261A3.152,3.152,0,0,0,13.5,7.333a3.059,3.059,0,0,0-2.833,1.5V7.5H7.834v9.583h3V12.334C10.833,11.165,10.969,9.917,12.583,9.917ZM3,7.5H3v9.583H6V7.5ZM4.416,2.667a1.75,1.75,0,0,0,0,3.5A1.712,1.712,0,0,0,6.167,4.416,1.752,1.752,0,0,0,4.416,2.667Z" fill="#2c2d2e"/>
    </clipPath>
  </defs>
</svg>
